<svg xmlns="http://www.w3.org/2000/svg" xmlns:xlink="http://www.w3.org/1999/xlink" id="Layer_1" width="40" height="40" x="0" y="0" enable-background="new 0 0 40 40" version="1.1" viewBox="0 0 40 40" xml:space="preserve"><g><polygon fill="#424143" points="6 30 6 9 5 9 5 30 5 31 6 31 35 31 35 30"/><rect width="7" height="8" x="8" y="20" fill="#424143"/><path fill="#424143" d="M24,12h-7v16h7V12z M23,27h-5V13h5V27z"/><rect width="7" height="1" x="26" y="17" fill="#424143"/><rect width="7" height="1" x="26" y="19" fill="#424143"/><rect width="7" height="1" x="26" y="21" fill="#424143"/><rect width="7" height="1" x="26" y="23" fill="#424143"/><rect width="7" height="1" x="26" y="25" fill="#424143"/><rect width="7" height="1" x="26" y="27" fill="#424143"/></g></svg>