<svg xmlns="http://www.w3.org/2000/svg" xmlns:xlink="http://www.w3.org/1999/xlink" id="Layer_1" width="40" height="40" x="0" y="0" enable-background="new 0 0 40 40" version="1.1" viewBox="0 0 40 40" xml:space="preserve"><g><path fill="#424143" d="M20,5C13.924,5,9,9.924,9,16c0,6.076,4.924,11,11,11s11-4.924,11-11C31,9.924,26.076,5,20,5z M20,26 c-5.514,0-10-4.486-10-10S14.486,6,20,6c5.514,0,10,4.486,10,10S25.514,26,20,26z"/><rect width="8" height="4" x="16" y="28" fill="#424143"/><path fill="#424143" d="M20,35c1.104,0,2-0.896,2-2h-4C18,34.104,18.896,35,20,35z"/><path fill="#424143" d="M20,23l4-6h-8L20,23z M20,21.197L17.869,18h4.262L20,21.197z"/></g></svg>