<svg xmlns="http://www.w3.org/2000/svg" xmlns:xlink="http://www.w3.org/1999/xlink" id="Layer_1" width="60" height="60" x="0" y="0" enable-background="new 0 0 60 60" version="1.1" viewBox="0 0 60 60" xml:space="preserve"><g><path fill="#424143" d="M11.667,5v50h36.667V5H11.667z M46.667,53.333H13.333V6.667h33.333V53.333z"/><path fill="#424143" d="M30,48.333c6.443,0,11.667-5.223,11.667-11.666C41.667,30.225,36.443,25,30,25 c-6.444,0-11.667,5.225-11.667,11.667C18.333,43.11,23.556,48.333,30,48.333z M30,33.333c1.841,0,3.333,1.493,3.333,3.334 S31.841,40,30,40s-3.333-1.492-3.333-3.333S28.159,33.333,30,33.333z"/><circle cx="30" cy="16.667" r="3.333" fill="#424143"/></g></svg>